<?xml version="1.0" encoding="utf-8"?>
<!-- Generator: Adobe Illustrator 27.2.0, SVG Export Plug-In . SVG Version: 6.00 Build 0)  -->
<svg version="1.1" xmlns="http://www.w3.org/2000/svg" xmlns:xlink="http://www.w3.org/1999/xlink" x="0px" y="0px"
	 viewBox="0 0 162 252" style="enable-background:new 0 0 162 252;" xml:space="preserve">
<style type="text/css">
	.st0{fill:#FFFFFF;stroke:#000000;}
	.st1{fill:#CC0000;}
	.st2{font-family:'MyriadPro-Regular';}
	.st3{font-size:20px;glyph-orientation-vertical:0;writing-mode:tb;}
</style>
<g id="Layer_2">
	<path class="st0" d="M14.9,0.4h132.2c8,0,14.5,6.5,14.5,14.6v222.1c0,8-6.5,14.6-14.5,14.6H14.9c-8,0-14.5-6.5-14.5-14.6V14.9
		C0.4,6.9,6.9,0.4,14.9,0.4z"/>
	<path d="M84.4,184.5c-1-2.8-2.1-6.7-6.7-7.2c-6.7-0.5-12.7-1.1-11.9-9.3c12-0.1,14.4-13.2,11.3-13.1c-5.9,0.1-2.9,5.8-12.1,6.8
		c-0.1-1.9,0.2-4.2-0.5-5.2c-2.2-2.8-7.9-0.1-9-3.8c0.4-4.2,6.1-12.8,7.1-13.8c-1.3-3.4-1.3-15.3,1.6-16.8h48.9
		c4.5,15.7-4.4,23.8-4.8,31c0.2,3.7,4.4,8.2,6.2,9.9L84.4,184.5z"/>
	<path class="st1" d="M84.9,69c-2.5,8.9-6.4,22-8.7,30.9c-5.9-6.1-14.3-17.1-29.9-16.1C60,89.4,61,102.3,61,115.8h47.8
		c0-13.6,1.1-26.3,14.7-31.9c-15.7-1.1-24,9.9-29.9,16.1C91.3,90.9,87.4,77.9,84.9,69L84.9,69z M84.9,58.8c0,0,0.8,2,1.5,2.8
		c0.7,0.7,2.5,1.7,2.5,1.7s-1.8,0.9-2.5,1.7c-0.7,0.7-1.5,2.8-1.5,2.8s-0.8-2-1.5-2.8c-0.7-0.7-2.5-1.7-2.5-1.7s1.8-0.9,2.5-1.7
		C84.1,60.8,84.9,58.8,84.9,58.8z M41.5,78.5c0,0,0.6,2.1,1.1,3c0.6,0.9,2.3,2,2.3,2s-1.9,0.7-2.7,1.3c-0.8,0.7-1.8,2.6-1.8,2.6
		s-0.6-2.1-1.1-3c-0.6-0.9-2.3-2-2.3-2s1.9-0.7,2.7-1.3C40.5,80.4,41.5,78.5,41.5,78.5z M128.6,78.5c0,0,1,1.9,1.8,2.6
		c0.8,0.7,2.7,1.3,2.7,1.3s-1.7,1.1-2.3,2c-0.6,0.9-1.1,3-1.1,3s-1-1.9-1.8-2.6c-0.8-0.7-2.7-1.3-2.7-1.3s1.7-1.1,2.3-2
		C128,80.7,128.6,78.5,128.6,78.5L128.6,78.5z"/>
</g>
<g id="Layer_4">
	<text transform="matrix(1 0 0 1 16.5088 13.1779)" class="st1 st2 st3">JOKER</text>
	<text transform="matrix(-1 0 0 -1 145.7046 237.4463)" class="st1 st2 st3">JOKER</text>
</g>
</svg>
