<?xml version="1.0" encoding="utf-8"?>
<!-- Generator: Adobe Illustrator 27.2.0, SVG Export Plug-In . SVG Version: 6.00 Build 0)  -->
<svg version="1.1" id="Layer_3" xmlns="http://www.w3.org/2000/svg" xmlns:xlink="http://www.w3.org/1999/xlink" x="0px" y="0px"
	 viewBox="0 0 162 252" style="enable-background:new 0 0 162 252;" xml:space="preserve">
<style type="text/css">
	.st0{fill:#FFFFFF;stroke:#000000;}
	.st1{font-family:'MyriadPro-Regular';}
	.st2{font-size:20px;glyph-orientation-vertical:0;writing-mode:tb;}
</style>
<path class="st0" d="M14.9,0.4h132.2c8,0,14.5,6.5,14.5,14.6v222.1c0,8-6.5,14.6-14.5,14.6H14.9c-8,0-14.5-6.5-14.5-14.6V14.9
	C0.4,6.9,6.9,0.4,14.9,0.4z"/>
<g id="Layer_4">
	<text transform="matrix(1 0 0 1 16.5088 13.1779)" class="st1 st2">JOKER</text>
	<text transform="matrix(-1 0 0 -1 145.7046 237.4463)" class="st1 st2">JOKER</text>
</g>
<g>
	<g transform="translate(0 -213.66)">
		<ellipse cx="40.9" cy="296.7" rx="4" ry="4.5"/>
		<ellipse cx="129.2" cy="296.7" rx="4" ry="4.5"/>
		<ellipse cx="84.9" cy="276.9" rx="4" ry="4.5"/>
	</g>
	<path d="M81.4,184.5c-1-2.8-2.1-6.7-6.7-7.2c-6.7-0.5-12.7-1.1-11.9-9.3c12-0.1,14.4-13.2,11.3-13.1c-5.9,0.1-2.9,5.8-12.1,6.8
		c-0.1-1.9,0.2-4.2-0.5-5.2c-2.2-2.8-7.9-0.1-9-3.8c0.4-4.2,6.1-12.8,7.1-13.8c-1.3-3.4-1.3-15.3,1.6-16.8h48.9
		c4.5,15.7-4.4,23.8-4.8,31c0.2,3.7,4.4,8.2,6.2,9.9L81.4,184.5z M84.9,69c-2.5,8.9-6.4,22-8.7,30.9c-5.9-6.1-14.3-17.1-29.9-16.1
		C60,89.5,61,102.3,61,115.8h47.8c0-13.6,1.1-26.3,14.7-31.9c-15.7-1.1-24,9.9-29.9,16.1C91.3,90.9,87.4,77.9,84.9,69L84.9,69z"/>
</g>
</svg>
