<?xml version="1.0" encoding="utf-8"?>
<!-- Generator: Adobe Illustrator 27.2.0, SVG Export Plug-In . SVG Version: 6.00 Build 0)  -->
<svg version="1.1" xmlns="http://www.w3.org/2000/svg" xmlns:xlink="http://www.w3.org/1999/xlink" x="0px" y="0px"
	 viewBox="0 0 162 252" style="enable-background:new 0 0 162 252;" xml:space="preserve">
<style type="text/css">
	.st0{fill:#FFFFFF;stroke:#000000;}
	.st1{enable-background:new    ;}
</style>
<g id="Layer_3">
	<path class="st0" d="M14.9,0.4h132.2c8,0,14.5,6.5,14.5,14.6v222.1c0,8-6.5,14.6-14.5,14.6H14.9c-8,0-14.5-6.5-14.5-14.6V14.9
		C0.4,6.9,6.9,0.4,14.9,0.4z"/>
	<g>
		<g transform="translate(0 -213.66)">
			<ellipse cx="40.9" cy="296.7" rx="4" ry="4.5"/>
			<ellipse cx="129.2" cy="296.7" rx="4" ry="4.5"/>
			<ellipse cx="84.9" cy="276.9" rx="4" ry="4.5"/>
		</g>
		<path d="M81.4,184.5c-1-2.8-2.1-6.7-6.7-7.2c-6.7-0.5-12.7-1.1-11.9-9.3c12-0.1,14.4-13.2,11.3-13.1c-5.9,0.1-2.9,5.8-12.1,6.8
			c-0.1-1.9,0.2-4.2-0.5-5.2c-2.2-2.8-7.9-0.1-9-3.8c0.4-4.2,6.1-12.8,7.1-13.8c-1.3-3.4-1.3-15.3,1.6-16.8h48.9
			c4.5,15.7-4.4,23.8-4.8,31c0.2,3.7,4.4,8.2,6.2,9.9L81.4,184.5z M84.9,69c-2.5,8.9-6.4,22-8.7,30.9c-5.9-6.1-14.3-17.1-29.9-16.1
			C60,89.5,61,102.3,61,115.8h47.8c0-13.6,1.1-26.3,14.7-31.9c-15.7-1.1-24,9.9-29.9,16.1C91.3,90.9,87.4,77.9,84.9,69L84.9,69z"/>
	</g>
</g>
<g id="Layer_2">
	<g id="Layer_4_00000129191535536876042440000008757508280754459787_">
		<g class="st1">
			<path d="M12.1,26.3l1.7-0.2c0,1.1,0.3,1.8,0.6,2.2s0.9,0.6,1.5,0.6c0.5,0,0.9-0.1,1.2-0.3s0.6-0.5,0.7-0.9s0.2-1,0.2-1.8V16H20
				v9.8c0,1.2-0.1,2.1-0.4,2.8s-0.7,1.2-1.4,1.5s-1.4,0.5-2.2,0.5c-1.3,0-2.2-0.4-2.9-1.1S12.1,27.7,12.1,26.3z"/>
			<path d="M9.7,43.4c0-2.4,0.6-4.2,1.9-5.6s2.9-2,4.9-2c1.3,0,2.5,0.3,3.6,0.9s1.9,1.5,2.4,2.6s0.8,2.4,0.8,3.8
				c0,1.5-0.3,2.8-0.9,3.9s-1.4,2-2.5,2.6s-2.2,0.9-3.5,0.9c-1.3,0-2.6-0.3-3.6-1s-1.9-1.5-2.4-2.7S9.7,44.6,9.7,43.4z M11.7,43.4
				c0,1.7,0.5,3.1,1.4,4.1s2.1,1.5,3.5,1.5c1.4,0,2.6-0.5,3.5-1.5s1.4-2.4,1.4-4.3c0-1.2-0.2-2.2-0.6-3.1s-1-1.5-1.7-2
				s-1.6-0.7-2.6-0.7c-1.3,0-2.5,0.5-3.5,1.4S11.7,41.2,11.7,43.4z"/>
			<path d="M11.3,70.3V56h1.9v7.1l7.1-7.1h2.6l-6,5.8l6.3,8.5h-2.5l-5.1-7.2l-2.3,2.3v5H11.3z"/>
			<path d="M11.4,90.3V76h10.4v1.7h-8.5v4.4h7.9v1.7h-7.9v4.9h8.8v1.7H11.4z"/>
			<path d="M10.9,110.3V96h6.3c1.3,0,2.2,0.1,2.9,0.4s1.2,0.7,1.6,1.4s0.6,1.4,0.6,2.2c0,1-0.3,1.9-1,2.6s-1.7,1.1-3,1.3
				c0.5,0.2,0.9,0.5,1.1,0.7c0.6,0.5,1.1,1.1,1.6,1.9l2.5,3.9h-2.4l-1.9-3c-0.6-0.9-1-1.5-1.4-2s-0.7-0.8-1-1s-0.6-0.3-0.9-0.4
				c-0.2,0-0.6-0.1-1.1-0.1h-2.2v6.4H10.9z M12.8,102.3h4.1c0.9,0,1.5-0.1,2-0.3s0.9-0.5,1.1-0.9s0.4-0.8,0.4-1.3
				c0-0.7-0.2-1.2-0.7-1.7s-1.3-0.7-2.3-0.7h-4.5V102.3z"/>
		</g>
		<g class="st1">
			<path d="M150.1,224.3l-1.7,0.2c0-1.1-0.2-1.8-0.6-2.2s-0.9-0.6-1.5-0.6c-0.5,0-0.9,0.1-1.2,0.3s-0.6,0.5-0.7,0.9s-0.2,1-0.2,1.8
				v9.9h-1.9v-9.8c0-1.2,0.1-2.1,0.4-2.8s0.7-1.2,1.4-1.5s1.4-0.5,2.2-0.5c1.3,0,2.2,0.4,2.9,1.1S150.2,222.9,150.1,224.3z"/>
			<path d="M152.5,207.3c0,2.4-0.6,4.2-1.9,5.6s-2.9,2-4.9,2c-1.3,0-2.5-0.3-3.6-0.9s-1.9-1.5-2.4-2.6s-0.8-2.4-0.8-3.8
				c0-1.5,0.3-2.8,0.9-3.9s1.4-2,2.5-2.6s2.2-0.9,3.5-0.9c1.3,0,2.6,0.3,3.6,1s1.9,1.5,2.4,2.7S152.5,206,152.5,207.3z M150.6,207.2
				c0-1.7-0.5-3.1-1.4-4.1s-2.1-1.5-3.5-1.5c-1.4,0-2.6,0.5-3.5,1.5s-1.4,2.4-1.4,4.3c0,1.2,0.2,2.2,0.6,3.1s1,1.5,1.7,2
				s1.6,0.7,2.6,0.7c1.3,0,2.5-0.5,3.5-1.4S150.6,209.4,150.6,207.2z"/>
			<path d="M150.9,180.3v14.3H149v-7.1l-7.1,7.1h-2.6l6-5.8l-6.3-8.5h2.5l5.1,7.2l2.3-2.3v-5H150.9z"/>
			<path d="M150.8,160.3v14.3h-10.4v-1.7h8.5v-4.4H141v-1.7h7.9V162h-8.8v-1.7H150.8z"/>
			<path d="M151.4,140.3v14.3H145c-1.3,0-2.2-0.1-2.9-0.4s-1.2-0.7-1.6-1.4s-0.6-1.4-0.6-2.2c0-1,0.3-1.9,1-2.6s1.7-1.1,3-1.3
				c-0.5-0.2-0.9-0.5-1.1-0.7c-0.6-0.5-1.1-1.1-1.6-1.9l-2.5-3.9h2.4l1.9,3c0.6,0.9,1,1.5,1.4,2s0.7,0.8,1,1s0.6,0.3,0.9,0.4
				c0.2,0,0.6,0.1,1.1,0.1h2.2v-6.4H151.4z M149.5,148.3h-4.1c-0.9,0-1.5,0.1-2,0.3s-0.9,0.5-1.1,0.9s-0.4,0.8-0.4,1.3
				c0,0.7,0.2,1.2,0.7,1.7s1.3,0.7,2.3,0.7h4.5V148.3z"/>
		</g>
	</g>
</g>
</svg>
