<?xml version="1.0" encoding="utf-8"?>
<!-- Generator: Adobe Illustrator 27.2.0, SVG Export Plug-In . SVG Version: 6.00 Build 0)  -->
<svg version="1.1" id="Layer_1" xmlns="http://www.w3.org/2000/svg" xmlns:xlink="http://www.w3.org/1999/xlink" x="0px" y="0px"
	 viewBox="0 0 240 336" style="enable-background:new 0 0 240 336;" xml:space="preserve">
<style type="text/css">
	.st0{fill:#FFFFFF;stroke:#000000;}
	.st1{font-family:'ArialMT';}
	.st2{font-size:19.9621px;}
</style>
<g transform="translate(0 -213.66)">
	<path class="st0" d="M13.6,214.4h213.3c7.1,0,12.8,5.7,12.8,12.8v309.6c0,7.1-5.7,12.8-12.8,12.8H13.6c-7.1,0-12.8-5.7-12.8-12.8
		V227.2C0.8,220.2,6.5,214.4,13.6,214.4z"/>
	<text transform="matrix(1 0 0 1 6.8887 242.2098)" class="st1 st2">J</text>
	<text transform="matrix(1 0 0 1 16.8696 242.2098)" class="st1 st2"> </text>
	<text transform="matrix(1 0 0 1 4.1157 260.1751)" class="st1 st2">O</text>
	<text transform="matrix(1 0 0 1 19.6426 260.1751)" class="st1 st2"> </text>
	<text transform="matrix(1 0 0 1 5.2217 278.1405)" class="st1 st2">K</text>
	<text transform="matrix(1 0 0 1 18.5361 278.1405)" class="st1 st2"> </text>
	<text transform="matrix(1 0 0 1 5.2217 296.1063)" class="st1 st2">E</text>
	<text transform="matrix(1 0 0 1 18.5361 296.1063)" class="st1 st2"> </text>
	<text transform="matrix(1 0 0 1 7.4443 314.0721)" class="st1 st2">R</text>
	<text transform="matrix(-1 0 0 -1 233.6182 521.8524)" class="st1 st2">J</text>
	<text transform="matrix(-1 0 0 -1 223.6377 521.8524)" class="st1 st2"> </text>
	<text transform="matrix(-1 0 0 -1 236.3916 503.8875)" class="st1 st2">O</text>
	<text transform="matrix(-1 0 0 -1 220.8623 503.8875)" class="st1 st2"> </text>
	<text transform="matrix(-1 0 0 -1 235.2842 485.9207)" class="st1 st2">K</text>
	<text transform="matrix(-1 0 0 -1 221.9697 485.9207)" class="st1 st2"> </text>
	<text transform="matrix(-1 0 0 -1 235.2842 467.9579)" class="st1 st2">E</text>
	<text transform="matrix(-1 0 0 -1 221.9697 467.9579)" class="st1 st2"> </text>
	<text transform="matrix(-1 0 0 -1 233.0615 449.9911)" class="st1 st2">R</text>
</g>
<g>
	<g transform="translate(0 -213.66)">
		<circle cx="46.7" cy="319.2" r="6.7"/>
		<circle cx="193.8" cy="319.2" r="6.7"/>
		<circle cx="120" cy="289.8" r="6.7"/>
	</g>
	<path d="M114.1,256.6c-1.7-4.2-3.5-9.9-11.1-10.7c-11.1-0.8-21.1-1.6-19.8-13.8c20-0.2,24-19.7,18.8-19.5
		c-9.8,0.1-4.9,8.7-20.2,10.1c-0.1-2.9,0.3-6.3-0.8-7.8c-3.7-4.1-13.2-0.1-15-5.7c0.6-6.3,10.1-19.1,11.9-20.6
		c-2.2-5-2.1-22.7,2.7-25h81.5c7.5,23.3-7.4,35.4-8,46.2c0.3,5.5,7.4,12.2,10.3,14.7L114.1,256.6z M120,84.7
		c-4.2,13.2-10.6,32.7-14.5,46c-9.9-9.1-23.8-25.5-49.8-23.9c22.8,8.3,24.5,27.4,24.5,47.5h79.7c0-20.2,1.8-39.2,24.5-47.5
		c-26.1-1.7-40,14.7-49.8,23.9C130.6,117.3,124.2,97.9,120,84.7L120,84.7z"/>
</g>
</svg>
