<svg width="225" height="315" xmlns="http://www.w3.org/2000/svg">
    <g transform="translate(0 -213.66)">
        <rect x=".75" y="214.41" width="223.5" height="313.5" rx="12" ry="12" fill="#fff" stroke="#000"/>
        <text x="13.75" y="240.406" font-family="sans-serif" font-size="18.667" letter-spacing="0" text-anchor="middle"
            word-spacing="0" style="line-height:.89999998">
            <tspan x="13.75" y="240.406">J</tspan>
            <tspan x="13.75" y="257.206">O</tspan>
            <tspan x="13.75" y="274.006">K</tspan>
            <tspan x="13.75" y="290.806">E</tspan>
            <tspan x="13.75" y="307.606">R</tspan>
        </text>
        <text transform="scale(-1)" x="-211.25" y="-501.907" font-family="sans-serif" font-size="18.667"
            letter-spacing="0" text-anchor="middle" word-spacing="0" style="line-height:.89999998">
            <tspan x="-211.25" y="-501.907">J</tspan>
            <tspan x="-211.25" y="-485.107">O</tspan>
            <tspan x="-211.25" y="-468.307">K</tspan>
            <tspan x="-211.25" y="-451.507">E</tspan>
            <tspan x="-211.25" y="-434.707">R</tspan>
        </text>
    </g>
    <g stroke-width="1.25">
        <g transform="translate(0 -213.66)">
            <circle cx="43.75" cy="312.41" r="6.25" />
            <circle cx="181.25" cy="312.41" r="6.25" />
            <circle cx="112.25" cy="284.91" r="6.25" />
        </g>
        <path
            d="M106.75 240c-1.599-3.918-3.275-9.263-10.336-10.03-10.356-.76-19.759-1.517-18.474-12.874 18.692-.15 22.472-18.41 17.58-18.231-9.19.133-4.537 8.09-18.922 9.41-.088-2.757.26-5.888-.736-7.265-3.503-3.84-12.384-.06-14.038-5.325.518-5.877 9.398-17.906 11.126-19.244-2.013-4.67-1.991-21.214 2.493-23.374h76.22c7.034 21.765-6.886 33.064-7.468 43.24.242 5.176 6.894 11.39 9.587 13.78zm5.5-160.79c-3.922 12.381-9.929 30.548-13.594 43.008-9.244-8.537-22.211-23.869-46.601-22.305 21.289 7.786 22.93 25.589 22.93 44.452h74.531c0-18.865 1.642-36.668 22.93-44.452-24.394-1.565-37.362 13.768-46.605 22.305-3.665-12.46-9.671-30.628-13.594-43.008z" />
    </g>
</svg>